
Format : AVI
Format/Info : Audio Video Interleave
File size : 692 MiB
Duration : 1h 46mn
Overall bit rate : 906 Kbps
Writing application : MEncoder SVN-r29352(20090610-gcc4.3.3)
Writing library : MPlayer

Video
ID : 0
Format : MPEG-4 Visual
Format profile : AdvancedSimple@L5
Format settings, BVOP : Yes
Format settings, QPel : No
Format settings, GMC : No warppoints
Format settings, Matrix : Default (H.263)
Codec ID : XVID
Codec ID/Hint : XviD
Duration : 1h 46mn
Bit rate : 766 Kbps
Width : 640 pixels
Height : 360 pixels
Display aspect ratio : 16:9
Frame rate : 25.000 fps
Resolution : 24 bits
Colorimetry : 4:2:0
Scan type : Progressive
Bits/(Pixel*Frame) : 0.133
Stream size : 585 MiB (85%)
Writing library : XviD 1.2.1 (UTC 2008-12-04)

Audio
ID : 1
Format : MPEG Audio
Format version : Version 1
Format profile : Layer 3
Codec ID : 55
Codec ID/Hint : MP3
Duration : 1h 46mn
Bit rate mode : Constant
Bit rate : 128 Kbps
Channel(s) : 2 channels
Sampling rate : 44.1 KHz
Resolution : 16 bits
Video delay : 40ms
Stream size : 97.7 MiB (14%)
Alignment : Aligned on interleaves
Interleave, duration : 26 ms (0.65 video frame)
Interleave, preload duration : 522 ms
Writing library : LAME3.98UUUUUULAME3.

Starring
Rupert Friend
Natascha McElhone
Ioan Gruffudd
David O'Hara

Based on the real life story of Kevin Lewis, the film follows his childhood of abuse, his descent into a life of crime and how he put his life together again afterwards.
 
http://www.imdb.com/title/tt1371160/

screens
 
http://img248.imageshack.us/img248/203/thekidxvidviceavisnapsh.jpg 
http://img168.imageshack.us/img168/203/thekidxvidviceavisnapsh.jpg 
http://img266.imageshack.us/img266/203/thekidxvidviceavisnapsh.jpg 
http://img153.imageshack.us/img153/203/thekidxvidviceavisnapsh.jpg